<svg width="24" height="24" viewBox="0 0 24 24" fill="none" xmlns="http://www.w3.org/2000/svg">
<path id="Vector" d="M2.66667 10.8007L5.33333 8.134L12.6667 15.4673L17.3333 10.8007L21.3333 14.8007V2.66667H2.66667V10.8007ZM2.66667 14.5719V21.3333H6.80067L10.7811 17.3529L5.33333 11.9052L2.66667 14.5719ZM10.5719 21.3333H21.3333V18.5719L17.3333 14.5719L10.5719 21.3333ZM1.33333 0H22.6667C23.4031 0 24 0.59696 24 1.33333V22.6667C24 23.4031 23.4031 24 22.6667 24H1.33333C0.59696 24 0 23.4031 0 22.6667V1.33333C0 0.59696 0.59696 0 1.33333 0ZM16.6667 9.33333C15.5621 9.33333 14.6667 8.43791 14.6667 7.33333C14.6667 6.22876 15.5621 5.33333 16.6667 5.33333C17.7712 5.33333 18.6667 6.22876 18.6667 7.33333C18.6667 8.43791 17.7712 9.33333 16.6667 9.33333Z" fill="#C330E8"/>
</svg>
