<svg width="24" height="24" viewBox="0 0 24 24" fill="none" xmlns="http://www.w3.org/2000/svg">
<g id="Group 16">
<path id="Vector" d="M21.3333 24H2.66667C1.194 24 0 22.806 0 21.3333V2.66667C0 1.194 1.194 0 2.66667 0H21.3333C22.806 0 24 1.194 24 2.66667V21.3333C24 22.806 22.806 24 21.3333 24Z" fill="#E53935"/>
<path id="Vector_2" d="M19.2273 13.8653C18.0993 12.694 15.0179 13.1713 14.2806 13.258C13.1959 12.2167 12.4579 10.958 12.1979 10.524C12.5886 9.35268 12.8486 8.18068 12.8919 6.92268C12.8919 5.83802 12.4579 4.66602 11.2433 4.66602C10.8093 4.66602 10.4186 4.92668 10.2019 5.27335C9.68126 6.18468 9.89793 8.00735 10.7226 9.87268C10.2453 11.218 9.81126 12.5193 8.59659 14.8193C7.33793 15.34 4.69126 16.5553 4.47459 17.8567C4.38793 18.2473 4.51793 18.638 4.82193 18.9413C5.12526 19.2027 5.51526 19.3327 5.90593 19.3327C7.51126 19.3327 9.07326 17.1193 10.1586 15.254C11.0699 14.95 12.5019 14.516 13.9339 14.256C15.6259 15.7313 17.1013 15.948 17.8826 15.948C18.9239 15.948 19.3146 15.514 19.4446 15.1234C19.6613 14.69 19.5313 14.2127 19.2273 13.8653ZM18.1426 14.6027C18.0993 14.9067 17.7086 15.21 17.0146 15.0367C16.1899 14.82 15.4526 14.4293 14.8013 13.9087C15.3653 13.822 16.6239 13.692 17.5353 13.8653C17.8826 13.952 18.2293 14.1687 18.1426 14.6027ZM10.8959 5.66402C10.9826 5.53402 11.1126 5.44735 11.2433 5.44735C11.6339 5.44735 11.7206 5.92468 11.7206 6.31535C11.6773 7.22668 11.5039 8.13802 11.1999 9.00602C10.5493 7.26935 10.6793 6.05468 10.8959 5.66402ZM10.8093 14.082C11.1566 13.388 11.6339 12.1727 11.8073 11.652C12.1979 12.3027 12.8486 13.084 13.1959 13.4313C13.1959 13.4747 11.8506 13.7353 10.8093 14.082ZM8.24926 15.818C7.25126 17.4667 6.20993 18.5087 5.64593 18.5087C5.55926 18.5087 5.47259 18.4653 5.38526 18.422C5.25526 18.3353 5.21193 18.2053 5.25526 18.0313C5.38526 17.4233 6.51326 16.5987 8.24926 15.818Z" fill="white"/>
</g>
</svg>
