<svg width="24" height="24" viewBox="0 0 24 24" fill="none" xmlns="http://www.w3.org/2000/svg">
<path id="Vector" d="M17.3333 0L23.9996 6L24 22.791C24 23.4587 23.4068 24 22.6755 24H1.32453C0.593013 24 0 23.4536 0 22.8098V1.19016C0 0.53286 0.596653 0 1.33133 0H17.3333ZM16 2.4H2.66667V21.6H21.3333V7.2H16V2.4ZM13.3333 9.6V15.6H12V9.6H13.3333ZM10.6667 9.6V10.8H8C7.26363 10.8 6.66667 11.3372 6.66667 12V13.2C6.66667 13.8628 7.26363 14.4 8 14.4H9.33333V13.2H8V12H10.6667V14.4C10.6667 15.0628 10.0697 15.6 9.33333 15.6H8C6.52724 15.6 5.33333 14.5255 5.33333 13.2V12C5.33333 10.6745 6.52724 9.6 8 9.6H10.6667ZM18.6667 9.6V10.8H16V12H18.6667V13.2H16V15.6H14.6667V9.6H18.6667Z" fill="#E83067"/>
</svg>
